<mxfile host="app.diagrams.net" modified="2023-04-07T14:44:12.536Z" agent="Mozilla/5.0 (Windows NT 10.0; Win64; x64) AppleWebKit/537.36 (KHTML, like Gecko) Chrome/112.0.0.0 Safari/537.36" etag="Sf3zZcIE3YEGzYm8sxKq" version="21.1.5" type="github">
  <diagram name="Page-1" id="9asvUE9ynaNc0cd55pQM">
    <mxGraphModel dx="1050" dy="581" grid="1" gridSize="10" guides="1" tooltips="1" connect="1" arrows="1" fold="1" page="1" pageScale="1" pageWidth="827" pageHeight="1169" math="0" shadow="0">
      <root>
        <mxCell id="0" />
        <mxCell id="1" parent="0" />
        <mxCell id="FvXXG0tgY_YSkkKHEjiG-1" value="" style="sketch=0;aspect=fixed;pointerEvents=1;shadow=0;dashed=0;html=1;strokeColor=none;labelPosition=center;verticalLabelPosition=bottom;verticalAlign=top;align=center;fillColor=#00188D;shape=mxgraph.azure.laptop" parent="1" vertex="1">
          <mxGeometry x="180" y="110" width="50" height="30" as="geometry" />
        </mxCell>
        <mxCell id="FvXXG0tgY_YSkkKHEjiG-3" value="" style="ellipse;whiteSpace=wrap;html=1;aspect=fixed;" parent="1" vertex="1">
          <mxGeometry x="50" y="240" width="280" height="280" as="geometry" />
        </mxCell>
        <mxCell id="FvXXG0tgY_YSkkKHEjiG-6" value="" style="sketch=0;aspect=fixed;pointerEvents=1;shadow=0;dashed=0;html=1;strokeColor=none;labelPosition=center;verticalLabelPosition=bottom;verticalAlign=top;align=center;fillColor=#00188D;shape=mxgraph.azure.laptop" parent="1" vertex="1">
          <mxGeometry x="90" y="410" width="50" height="30" as="geometry" />
        </mxCell>
        <mxCell id="FvXXG0tgY_YSkkKHEjiG-7" value="vEdge" style="image;html=1;image=img/lib/clip_art/networking/Router_Icon_128x128.png" parent="1" vertex="1">
          <mxGeometry x="270" y="320" width="50" height="40" as="geometry" />
        </mxCell>
        <mxCell id="FvXXG0tgY_YSkkKHEjiG-8" value="" style="image;html=1;image=img/lib/clip_art/networking/Router_Icon_128x128.png" parent="1" vertex="1">
          <mxGeometry x="580" y="230" width="50" height="30" as="geometry" />
        </mxCell>
        <mxCell id="FvXXG0tgY_YSkkKHEjiG-9" value="" style="shape=flexArrow;endArrow=classic;startArrow=classic;html=1;rounded=0;entryX=0;entryY=0.5;entryDx=0;entryDy=0;" parent="1" source="FvXXG0tgY_YSkkKHEjiG-7" target="FvXXG0tgY_YSkkKHEjiG-8" edge="1">
          <mxGeometry width="100" height="100" relative="1" as="geometry">
            <mxPoint x="360" y="350" as="sourcePoint" />
            <mxPoint x="460" y="250" as="targetPoint" />
          </mxGeometry>
        </mxCell>
        <mxCell id="FvXXG0tgY_YSkkKHEjiG-10" value="" style="endArrow=classic;html=1;rounded=0;" parent="1" target="FvXXG0tgY_YSkkKHEjiG-7" edge="1">
          <mxGeometry width="50" height="50" relative="1" as="geometry">
            <mxPoint x="140" y="430" as="sourcePoint" />
            <mxPoint x="200" y="410" as="targetPoint" />
          </mxGeometry>
        </mxCell>
        <mxCell id="FvXXG0tgY_YSkkKHEjiG-18" value="check PAC file, go to sha1( Shanghai Zscaler node" style="edgeLabel;html=1;align=center;verticalAlign=middle;resizable=0;points=[];" parent="FvXXG0tgY_YSkkKHEjiG-10" vertex="1" connectable="0">
          <mxGeometry x="-0.5131" y="8" relative="1" as="geometry">
            <mxPoint x="22" y="46" as="offset" />
          </mxGeometry>
        </mxCell>
        <mxCell id="FvXXG0tgY_YSkkKHEjiG-11" value="Zscaler Connect Server&lt;br&gt;ZPA&lt;br&gt;ZIA" style="image;html=1;image=img/lib/clip_art/computers/Server_Rack_Partial_128x128.png" parent="1" vertex="1">
          <mxGeometry x="140" y="250" width="50" height="50" as="geometry" />
        </mxCell>
        <mxCell id="FvXXG0tgY_YSkkKHEjiG-14" value="" style="endArrow=classic;html=1;rounded=0;exitX=0.5;exitY=1;exitDx=0;exitDy=0;exitPerimeter=0;entryX=0.75;entryY=0;entryDx=0;entryDy=0;" parent="1" source="FvXXG0tgY_YSkkKHEjiG-1" target="FvXXG0tgY_YSkkKHEjiG-11" edge="1">
          <mxGeometry width="50" height="50" relative="1" as="geometry">
            <mxPoint x="210" y="200" as="sourcePoint" />
            <mxPoint x="270" y="210" as="targetPoint" />
          </mxGeometry>
        </mxCell>
        <mxCell id="FvXXG0tgY_YSkkKHEjiG-15" value="check PAC file, go to sha1(Shanghai Zscaler node)" style="text;html=1;align=center;verticalAlign=middle;resizable=0;points=[];autosize=1;strokeColor=none;fillColor=none;" parent="1" vertex="1">
          <mxGeometry x="10" y="180" width="290" height="30" as="geometry" />
        </mxCell>
        <mxCell id="FvXXG0tgY_YSkkKHEjiG-17" value="" style="endArrow=classic;html=1;rounded=0;" parent="1" target="FvXXG0tgY_YSkkKHEjiG-7" edge="1">
          <mxGeometry width="50" height="50" relative="1" as="geometry">
            <mxPoint x="180" y="290" as="sourcePoint" />
            <mxPoint x="300" y="240" as="targetPoint" />
          </mxGeometry>
        </mxCell>
        <mxCell id="FvXXG0tgY_YSkkKHEjiG-20" value="" style="endArrow=classic;html=1;rounded=0;" parent="1" edge="1">
          <mxGeometry width="50" height="50" relative="1" as="geometry">
            <mxPoint x="180" y="270" as="sourcePoint" />
            <mxPoint x="450" y="150" as="targetPoint" />
          </mxGeometry>
        </mxCell>
        <mxCell id="FvXXG0tgY_YSkkKHEjiG-23" value="" style="endArrow=classic;html=1;rounded=0;exitX=0.75;exitY=0;exitDx=0;exitDy=0;" parent="1" source="FvXXG0tgY_YSkkKHEjiG-8" edge="1">
          <mxGeometry width="50" height="50" relative="1" as="geometry">
            <mxPoint x="620" y="220" as="sourcePoint" />
            <mxPoint x="670" y="170" as="targetPoint" />
          </mxGeometry>
        </mxCell>
        <mxCell id="FvXXG0tgY_YSkkKHEjiG-24" value=".cn&lt;br&gt;.gov" style="text;html=1;align=center;verticalAlign=middle;resizable=0;points=[];autosize=1;strokeColor=none;fillColor=none;" parent="1" vertex="1">
          <mxGeometry x="275" y="220" width="50" height="40" as="geometry" />
        </mxCell>
        <mxCell id="FvXXG0tgY_YSkkKHEjiG-25" value="China Zscaler Node" style="whiteSpace=wrap;html=1;" parent="1" vertex="1">
          <mxGeometry x="450" y="90" width="120" height="60" as="geometry" />
        </mxCell>
        <mxCell id="FvXXG0tgY_YSkkKHEjiG-27" value="Hong Kong Zscaler Node" style="rounded=0;whiteSpace=wrap;html=1;" parent="1" vertex="1">
          <mxGeometry x="670" y="110" width="120" height="60" as="geometry" />
        </mxCell>
        <mxCell id="FvXXG0tgY_YSkkKHEjiG-28" value="MPLS" style="text;html=1;align=center;verticalAlign=middle;resizable=0;points=[];autosize=1;strokeColor=none;fillColor=none;" parent="1" vertex="1">
          <mxGeometry x="400" y="260" width="60" height="30" as="geometry" />
        </mxCell>
        <mxCell id="FvXXG0tgY_YSkkKHEjiG-29" value="off-Trusted network" style="text;html=1;align=center;verticalAlign=middle;resizable=0;points=[];autosize=1;strokeColor=none;fillColor=none;" parent="1" vertex="1">
          <mxGeometry x="60" y="110" width="130" height="30" as="geometry" />
        </mxCell>
        <mxCell id="FvXXG0tgY_YSkkKHEjiG-31" value="Trusted network" style="text;html=1;align=center;verticalAlign=middle;resizable=0;points=[];autosize=1;strokeColor=none;fillColor=none;" parent="1" vertex="1">
          <mxGeometry x="50" y="380" width="110" height="30" as="geometry" />
        </mxCell>
      </root>
    </mxGraphModel>
  </diagram>
</mxfile>
